<?xml version="1.0"?>
<svg xmlns="http://www.w3.org/2000/svg" height="512px" viewBox="0 0 420 420.38272" width="512px" class=""><g><path d="m392.199219 137.734375c13.757812 26.152344 21.546875 55.941406 21.546875 87.546875 0 103.980469-84.292969 188.273438-188.277344 188.273438-103.980469 0-188.273438-84.292969-188.273438-188.273438 0-103.984375 84.292969-188.277344 188.277344-188.277344 48.925782 0 93.496094 18.664063 126.976563 49.257813" fill="#fff" data-original="#FFF" class=""/><g fill="#602f75"><path d="m225.472656 420.382812c-107.582031 0-195.105468-87.523437-195.105468-195.101562 0-107.582031 87.523437-195.105469 195.105468-195.105469 48.832032 0 95.566406 18.128907 131.578125 51.046875 2.78125 2.542969 2.972657 6.863282.433594 9.644532-2.546875 2.789062-6.859375 2.972656-9.644531.433593-33.492188-30.613281-76.945313-47.472656-122.367188-47.472656-100.054687 0-181.449218 81.398437-181.449218 181.449219 0 100.054687 81.394531 181.449218 181.449218 181.449218 100.054688 0 181.445313-81.394531 181.445313-181.449218 0-29.378906-7.179688-58.554688-20.757813-84.367188-1.761718-3.335937-.472656-7.464844 2.859375-9.21875 3.328125-1.765625 7.464844-.476562 9.21875 2.859375 14.613281 27.769531 22.335938 59.144531 22.335938 90.726563-.003907 107.582031-87.523438 195.105468-195.101563 195.105468zm0 0" data-original="#602F75" class="active-path" style="fill:#374957" data-old_color="#602F75"/><path d="m226.644531 418.785156c-1.414062 0-2.832031-.433594-4.054687-1.339844-60.683594-44.921874-96.910156-116.757812-96.910156-192.164062s36.230468-147.242188 96.910156-192.167969c3.027344-2.238281 7.308594-1.601562 9.546875 1.421875 2.246093 3.03125 1.605469 7.308594-1.425781 9.550782-57.214844 42.359374-91.375 110.097656-91.375 181.195312s34.160156 138.832031 91.375 181.191406c3.03125 2.242188 3.671874 6.515625 1.425781 9.550782-1.339844 1.804687-3.398438 2.761718-5.492188 2.761718zm0 0" data-original="#602F75" class="active-path" style="fill:#374957" data-old_color="#602F75"/><path d="m224.296875 418.785156c-2.09375 0-4.152344-.957031-5.492187-2.761718-2.246094-3.027344-1.605469-7.304688 1.425781-9.550782 57.210937-42.359375 91.371093-110.097656 91.371093-181.191406 0-71.097656-34.160156-138.835938-91.371093-181.195312-3.03125-2.242188-3.671875-6.519532-1.425781-9.550782 2.246093-3.023437 6.523437-3.660156 9.546874-1.421875 60.679688 44.921875 96.90625 116.757813 96.90625 192.167969 0 75.40625-36.226562 147.242188-96.90625 192.164062-1.222656.90625-2.640624 1.339844-4.054687 1.339844zm0 0" data-original="#602F75" class="active-path" style="fill:#374957" data-old_color="#602F75"/><path d="m413.742188 232.105469h-376.546876c-3.773437 0-6.828124-3.054688-6.828124-6.824219s3.054687-6.828125 6.828124-6.828125h376.546876c3.773437 0 6.828124 3.058594 6.828124 6.828125s-3.054687 6.824219-6.828124 6.824219zm0 0" data-original="#602F75" class="active-path" style="fill:#374957" data-old_color="#602F75"/><path d="m225.472656 420.382812c-3.773437 0-6.828125-3.058593-6.828125-6.828124v-376.550782c0-3.773437 3.054688-6.828125 6.828125-6.828125 3.773438 0 6.824219 3.054688 6.824219 6.828125v376.550782c0 3.769531-3.050781 6.828124-6.824219 6.828124zm0 0" data-original="#602F75" class="active-path" style="fill:#374957" data-old_color="#602F75"/></g><path d="m143.550781 75.09375c0 37.703125-68.265625 116.054688-68.265625 116.054688s-68.265625-78.351563-68.265625-116.054688 30.5625-68.265625 68.265625-68.265625 68.265625 30.5625 68.265625 68.265625zm0 0" fill="#ea3457" data-original="#EA3457" class="" style="fill:#EA3457"/><path d="m75.285156 197.972656c-1.972656 0-3.851562-.851562-5.148437-2.34375-2.855469-3.277344-69.945313-80.734375-69.945313-120.535156 0-41.40625 33.6875-75.09375 75.09375-75.09375s75.09375 33.6875 75.09375 75.09375c0 39.800781-67.089844 117.257812-69.945312 120.535156-1.296875 1.492188-3.175782 2.34375-5.148438 2.34375zm0-184.320312c-33.878906 0-61.441406 27.5625-61.441406 61.441406 0 26.449219 40.457031 80.382812 61.441406 105.523438 20.980469-25.148438 61.441406-79.085938 61.441406-105.523438 0-33.878906-27.566406-61.441406-61.441406-61.441406zm0 0" fill="#602f75" data-original="#602F75" class="active-path" style="fill:#374957" data-old_color="#602f75"/><path d="m109.417969 68.265625c0 18.851563-15.28125 34.132813-34.132813 34.132813-18.851562 0-34.132812-15.28125-34.132812-34.132813s15.28125-34.132813 34.132812-34.132813c18.851563 0 34.132813 15.28125 34.132813 34.132813zm0 0" fill="#fff" data-original="#FFF" class=""/><path d="m75.285156 109.226562c-22.585937 0-40.960937-18.375-40.960937-40.960937s18.375-40.957031 40.960937-40.957031c22.585938 0 40.960938 18.371094 40.960938 40.957031s-18.375 40.960937-40.960938 40.960937zm0-68.265624c-15.058594 0-27.308594 12.25-27.308594 27.304687 0 15.058594 12.25 27.308594 27.308594 27.308594 15.054688 0 27.304688-12.25 27.304688-27.308594 0-15.054687-12.25-27.304687-27.304688-27.304687zm0 0" fill="#602f75" data-original="#602F75" class="active-path" style="fill:#374957" data-old_color="#602f75"/><path d="m382.484375 81.921875c0 18.847656-15.28125 34.132813-34.132813 34.132813-18.851562 0-34.132812-15.285157-34.132812-34.132813 0-18.851563 15.28125-34.136719 34.132812-34.136719 18.851563 0 34.132813 15.285156 34.132813 34.136719zm0 0" fill="#00e7ff" data-original="#00E7FF" class="" style="fill:#4949E7" data-old_color="#00e7ff"/><path d="m348.351562 122.878906c-22.585937 0-40.960937-18.371094-40.960937-40.957031 0-22.589844 18.375-40.960937 40.960937-40.960937 22.585938 0 40.960938 18.371093 40.960938 40.960937 0 22.585937-18.375 40.957031-40.960938 40.957031zm0-68.265625c-15.058593 0-27.308593 12.25-27.308593 27.308594 0 15.054687 12.25 27.304687 27.308593 27.304687 15.058594 0 27.304688-12.25 27.304688-27.304687 0-15.058594-12.246094-27.308594-27.304688-27.308594zm0 0" fill="#00e7ff" data-original="#00E7FF" class="" style="fill:#4949E7" data-old_color="#00e7ff"/><path d="m184.511719 300.375c0 18.851562-15.28125 34.132812-34.132813 34.132812-18.851562 0-34.132812-15.28125-34.132812-34.132812s15.28125-34.136719 34.132812-34.136719c18.851563 0 34.132813 15.285157 34.132813 34.136719zm0 0" fill="#ffe600" data-original="#FFE600" class="" style="fill:#00AF80" data-old_color="#ffe600"/><path d="m150.378906 341.332031c-22.585937 0-40.960937-18.371093-40.960937-40.957031s18.375-40.960938 40.960937-40.960938c22.585938 0 40.960938 18.375 40.960938 40.960938s-18.375 40.957031-40.960938 40.957031zm0-68.265625c-15.058594 0-27.308594 12.25-27.308594 27.308594 0 15.054688 12.25 27.304688 27.308594 27.304688 15.054688 0 27.304688-12.25 27.304688-27.304688 0-15.058594-12.25-27.308594-27.304688-27.308594zm0 0" fill="#ffe600" data-original="#FFE600" class="" style="fill:#00AF80" data-old_color="#ffe600"/></g> </svg>
