<svg fill="#000000" xmlns="http://www.w3.org/2000/svg"  viewBox="0 0 80 80" width="160px" height="160px"><path fill="none" stroke="#000000" stroke-miterlimit="10" stroke-width="2" d="M64 14l-4.675 52.356C59.141 68.419 57.413 70 55.341 70H24.659c-2.071 0-3.8-1.581-3.984-3.644L16 14H64zM47 10H33V7c0-1.105.895-2 2-2h10c1.105 0 2 .895 2 2V10zM66 14H14c-1.105 0-2-.895-2-2v0c0-1.105.895-2 2-2h52c1.105 0 2 .895 2 2v0C68 13.105 67.105 14 66 14z"/><path d="M46.892 25.999A1 1 0 1 0 46.892 27.999A1 1 0 1 0 46.892 25.999Z" transform="rotate(-88.453 46.893 27)"/><path d="M46.784 29.997A1 1 0 1 0 46.784 31.997A1 1 0 1 0 46.784 29.997Z" transform="rotate(-88.453 46.785 30.999)"/><path d="M46.676 33.996A1 1 0 1 0 46.676 35.996A1 1 0 1 0 46.676 33.996Z" transform="rotate(-88.453 46.676 34.997)"/><path d="M46.568 37.994A1 1 0 1 0 46.568 39.994A1 1 0 1 0 46.568 37.994Z" transform="rotate(-88.453 46.568 38.996)"/><path d="M47 22A1 1 0 1 0 47 24A1 1 0 1 0 47 22Z" transform="rotate(-88.453 47 23.001)"/><path d="M46.46 41.993A1 1 0 1 0 46.46 43.993A1 1 0 1 0 46.46 41.993Z" transform="rotate(-88.453 46.46 42.994)"/><path d="M46.351 45.991A1 1 0 1 0 46.351 47.991A1 1 0 1 0 46.351 45.991Z" transform="rotate(-88.453 46.352 46.993)"/><path d="M46.243 49.99A1 1 0 1 0 46.243 51.99A1 1 0 1 0 46.243 49.99Z" transform="rotate(-88.453 46.244 50.992)"/><path d="M46.135 53.989A1 1 0 1 0 46.135 55.989A1 1 0 1 0 46.135 53.989Z" transform="rotate(-88.453 46.136 54.99)"/><path d="M46.027 57.987A1 1 0 1 0 46.027 59.987A1 1 0 1 0 46.027 57.987Z" transform="rotate(-88.453 46.028 58.99)"/><path d="M45.919 61.986A1 1 0 1 0 45.919 63.986A1 1 0 1 0 45.919 61.986Z" transform="rotate(-88.453 45.92 62.988)"/><path d="M33.108 25.999A1 1 0 1 0 33.108 27.999A1 1 0 1 0 33.108 25.999Z" transform="rotate(-1.547 33.135 27.021)"/><path d="M33.216 29.997A1 1 0 1 0 33.216 31.997A1 1 0 1 0 33.216 29.997Z" transform="rotate(-1.547 33.244 31.023)"/><path d="M33.324 33.996A1 1 0 1 0 33.324 35.996A1 1 0 1 0 33.324 33.996Z" transform="rotate(-1.547 33.353 35.024)"/><path d="M33.432 37.994A1 1 0 1 0 33.432 39.994A1 1 0 1 0 33.432 37.994Z" transform="rotate(-1.547 33.462 39.026)"/><path d="M33 22A1 1 0 1 0 33 24A1 1 0 1 0 33 22Z" transform="rotate(-1.547 33.026 23.02)"/><path d="M33.54 41.993A1 1 0 1 0 33.54 43.993A1 1 0 1 0 33.54 41.993Z" transform="rotate(-1.547 33.57 43.027)"/><path d="M33.649 45.991A1 1 0 1 0 33.649 47.991A1 1 0 1 0 33.649 45.991Z" transform="rotate(-1.547 33.676 47.029)"/><path d="M33.757 49.99A1 1 0 1 0 33.757 51.99A1 1 0 1 0 33.757 49.99Z" transform="rotate(-1.547 33.785 51.034)"/><path d="M33.865 53.989A1 1 0 1 0 33.865 55.989A1 1 0 1 0 33.865 53.989Z" transform="rotate(-1.547 33.894 55.035)"/><path d="M33.973 57.987A1 1 0 1 0 33.973 59.987A1 1 0 1 0 33.973 57.987Z" transform="rotate(-1.547 34.003 59.037)"/><path d="M34.081 61.986A1 1 0 1 0 34.081 63.986A1 1 0 1 0 34.081 61.986Z" transform="rotate(-1.547 34.112 63.038)"/><path d="M57.683 25.988A1 1 0 1 0 57.683 27.988A1 1 0 1 0 57.683 25.988Z" transform="rotate(-85.458 57.68 26.987)"/><path d="M57.366 29.975A1 1 0 1 0 57.366 31.975A1 1 0 1 0 57.366 29.975Z" transform="rotate(-85.458 57.364 30.974)"/><path d="M57.049 33.963A1 1 0 1 0 57.049 35.963A1 1 0 1 0 57.049 33.963Z" transform="rotate(-85.458 57.047 34.961)"/><path d="M56.733 37.95A1 1 0 1 0 56.733 39.95A1 1 0 1 0 56.733 37.95Z" transform="rotate(-85.458 56.73 38.948)"/><path d="M58 22A1 1 0 1 0 58 24A1 1 0 1 0 58 22Z" transform="rotate(-85.458 57.997 23)"/><path d="M56.416 41.937A1 1 0 1 0 56.416 43.937A1 1 0 1 0 56.416 41.937Z" transform="rotate(-85.458 56.413 42.936)"/><path d="M56.099 45.925A1 1 0 1 0 56.099 47.925A1 1 0 1 0 56.099 45.925Z" transform="rotate(-85.458 56.096 46.923)"/><path d="M55.782 49.912A1 1 0 1 0 55.782 51.912A1 1 0 1 0 55.782 49.912Z" transform="rotate(-85.458 55.78 50.91)"/><path d="M55.465 53.9A1 1 0 1 0 55.465 55.9A1 1 0 1 0 55.465 53.9Z" transform="rotate(-85.458 55.463 54.897)"/><path d="M55.149 57.887A1 1 0 1 0 55.149 59.887A1 1 0 1 0 55.149 57.887Z" transform="rotate(-85.458 55.146 58.885)"/><path d="M54.832 61.875A1 1 0 1 0 54.832 63.875A1 1 0 1 0 54.832 61.875Z" transform="rotate(-85.458 54.829 62.872)"/><path d="M22.317 25.988A1 1 0 1 0 22.317 27.988A1 1 0 1 0 22.317 25.988Z" transform="rotate(-4.542 22.318 26.99)"/><path d="M22.634 29.975A1 1 0 1 0 22.634 31.975A1 1 0 1 0 22.634 29.975Z" transform="rotate(-4.542 22.636 30.977)"/><path d="M22.951 33.963A1 1 0 1 0 22.951 35.963A1 1 0 1 0 22.951 33.963Z" transform="rotate(-4.542 22.953 34.966)"/><path d="M23.267 37.95A1 1 0 1 0 23.267 39.95A1 1 0 1 0 23.267 37.95Z" transform="rotate(-4.542 23.27 38.953)"/><path d="M22 22A1 1 0 1 0 22 24A1 1 0 1 0 22 22Z" transform="rotate(-4.542 22.002 23.003)"/><path d="M23.584 41.937A1 1 0 1 0 23.584 43.937A1 1 0 1 0 23.584 41.937Z" transform="rotate(-4.542 23.586 42.94)"/><path d="M23.901 45.925A1 1 0 1 0 23.901 47.925A1 1 0 1 0 23.901 45.925Z" transform="rotate(-4.542 23.903 46.93)"/><path d="M24.218 49.912A1 1 0 1 0 24.218 51.912A1 1 0 1 0 24.218 49.912Z" transform="rotate(-4.542 24.22 50.916)"/><path d="M24.535 53.9A1 1 0 1 0 24.535 55.9A1 1 0 1 0 24.535 53.9Z" transform="rotate(-4.542 24.537 54.904)"/><path d="M24.851 57.887A1 1 0 1 0 24.851 59.887A1 1 0 1 0 24.851 57.887Z" transform="rotate(-4.542 24.854 58.892)"/><path d="M25.168 61.875A1 1 0 1 0 25.168 63.875A1 1 0 1 0 25.168 61.875Z" transform="rotate(-4.542 25.17 62.88)"/></svg>