<svg fill="#000000" xmlns="http://www.w3.org/2000/svg"  viewBox="0 0 64 64" width="128px" height="128px"><path d="M21 12c-.6 0-1 .4-1 1v2c0 .6.4 1 1 1s1-.4 1-1v-2C22 12.4 21.6 12 21 12zM16 12c-.6 0-1 .4-1 1v2c0 .6.4 1 1 1s1-.4 1-1v-2C17 12.4 16.6 12 16 12zM26 12c-.6 0-1 .4-1 1v2c0 .6.4 1 1 1s1-.4 1-1v-2C27 12.4 26.6 12 26 12zM31 12c-.6 0-1 .4-1 1v2c0 .6.4 1 1 1s1-.4 1-1v-2C32 12.4 31.6 12 31 12zM37 12c-.6 0-1 .4-1 1v2c0 .6.4 1 1 1s1-.4 1-1v-2C38 12.4 37.6 12 37 12zM42 12c-.6 0-1 .4-1 1v2c0 .6.4 1 1 1s1-.4 1-1v-2C43 12.4 42.6 12 42 12zM47 12c-.6 0-1 .4-1 1v2c0 .6.4 1 1 1s1-.4 1-1v-2C48 12.4 47.6 12 47 12zM52 12c-.6 0-1 .4-1 1v2c0 .6.4 1 1 1s1-.4 1-1v-2C53 12.4 52.6 12 52 12zM34 47c.6 0 1-.4 1-1V26c0-.6-.4-1-1-1s-1 .4-1 1v20C33 46.6 33.4 47 34 47zM42 47C42 47 42 47 42 47c.6 0 1-.4 1-.9l1-20c0-.6-.4-1-.9-1-.6 0-1 .4-1 .9l-1 20C41 46.5 41.4 47 42 47zM26 47C26 47 26 47 26 47c.6 0 1-.5 1-1l-1-20c0-.6-.5-1-1-.9-.6 0-1 .5-.9 1l1 20C25 46.6 25.5 47 26 47z"/><path d="M55,8H43.5l-3.1-4.7C39.9,2.5,38.9,2,37.9,2h-7.9c-1,0-1.9,0.5-2.5,1.3L24.5,8H13c-1.7,0-3,1.3-3,3v6c0,1.7,1.3,3,3,3h0.1l3.5,33.5c0.3,2.6,2.4,4.5,5,4.5h24.8c2.6,0,4.7-1.9,5-4.5L54.9,20H55c1.7,0,3-1.3,3-3v-6C58,9.3,56.7,8,55,8z M29.2,4.4C29.4,4.2,29.7,4,30.1,4h7.9c0.3,0,0.6,0.2,0.8,0.4L41.1,8H26.9L29.2,4.4z M49.4,53.3c-0.2,1.5-1.4,2.7-3,2.7H21.6c-1.5,0-2.8-1.2-3-2.7L15.1,20h37.8L49.4,53.3z M56,17c0,0.6-0.4,1-1,1h-1H14c0,0,0,0-0.1,0c0,0,0,0-0.1,0H13c-0.6,0-1-0.4-1-1v-6c0-0.6,0.4-1,1-1h10.1h21.7H55c0.6,0,1,0.4,1,1V17z"/><path d="M41 54h4c.6 0 1-.4 1-1s-.4-1-1-1h-4c-.6 0-1 .4-1 1S40.4 54 41 54zM23 54h14c.6 0 1-.4 1-1s-.4-1-1-1H23c-.6 0-1 .4-1 1S22.4 54 23 54z"/></svg>