<svg xmlns="http://www.w3.org/2000/svg"  viewBox="0 0 80 80" width="160px" height="160px"><path fill="#c2e8ff" d="M14.5 69.5L14.5 68 6.495 11.929 6.499 10.5 73.5 10.5 73.5 12 65.505 67.929 65.501 69.5z"/><path fill="#788b9c" d="M73,11v0.929l-7.99,55.93L65,67.929V68v1H15v-1v-0.071l-0.01-0.07L7,11.929V11H73 M74,10H6v2l8,56v2 h52v-2l8-56V10L74,10z"/><path fill="#dcd5f2" d="M6,11.5c-0.827,0-1.5-0.673-1.5-1.5V4c0-0.827,0.673-1.5,1.5-1.5h68c0.827,0,1.5,0.673,1.5,1.5v6 c0,0.827-0.673,1.5-1.5,1.5H6z"/><path fill="#8b75a1" d="M74,3c0.551,0,1,0.449,1,1v6c0,0.551-0.449,1-1,1H6c-0.551,0-1-0.449-1-1V4c0-0.551,0.449-1,1-1H74 M74,2H6C4.895,2,4,2.895,4,4v6c0,1.105,0.895,2,2,2h68c1.105,0,2-0.895,2-2V4C76,2.895,75.105,2,74,2L74,2z"/><g><path fill="#dcd5f2" d="M20,77.5c-3.032,0-5.5-2.467-5.5-5.5v-3.5h51V72c0,3.033-2.468,5.5-5.5,5.5H20z"/><path fill="#8b75a1" d="M65,69v3c0,2.757-2.243,5-5,5H20c-2.757,0-5-2.243-5-5v-3H65 M66,68H14v4c0,3.314,2.686,6,6,6h40 c3.314,0,6-2.686,6-6V68L66,68z"/></g><g><path fill="#8bb7f0" d="M43.019,51.5l-2.221-2.3l2.221-2.3h7.561l-4.208-7.191l2.81,0.199l1.153-2.535l3.759,6.426 c1.108,1.77,1.244,3.671,0.38,5.229c-0.871,1.57-2.604,2.471-4.752,2.471H43.019z"/><path fill="#4e7ab5" d="M50.39,38.458l3.287,5.619c1.001,1.599,1.131,3.315,0.359,4.708C53.255,50.193,51.682,51,49.721,51 h-6.49l-1.738-1.8l1.738-1.8h6.476h1.744l-0.881-1.505l-3.289-5.62l1.517,0.108l0.693,0.049l0.288-0.632L50.39,38.458 M50.279,36.288l-1.409,3.096l-3.409-0.242l4.246,7.257h-6.901l-2.704,2.8l2.704,2.8h6.914c2.335,0,4.227-0.995,5.19-2.729 c0.954-1.721,0.801-3.828-0.386-5.724L50.279,36.288L50.279,36.288z"/><path fill="#8bb7f0" d="M44.201,35.83l-3.706-6.26l-0.411-0.655c0,0-0.506,0.758-0.535,0.808l-3.361,5.721l-1.218-2.391 l-2.742,0.054l3.401-5.792c1.113-1.785,2.733-2.814,4.439-2.814c1.707,0,3.316,1.011,4.416,2.772l3.688,6.23l-1.155,2.456 L44.201,35.83z"/><path fill="#4e7ab5" d="M40.068,25c1.531,0,2.986,0.925,3.979,2.517l3.559,6.012l-0.9,1.914l-2.213-0.101l-3.517-5.946 c-0.025-0.041-0.049-0.078-0.074-0.116l-0.844-1.214l-0.834,1.235c-0.035,0.052-0.073,0.109-0.106,0.166l-2.9,4.935l-0.662-1.299 l-0.284-0.558l-0.626,0.012l-1.535,0.03l2.936-4.998C37.073,25.944,38.539,25,40.068,25 M40.068,24 c-1.881,0-3.645,1.096-4.87,3.061l-3.855,6.562l3.322-0.065l1.49,2.926l3.825-6.509c0.03-0.052,0.063-0.098,0.09-0.139 c0.016,0.025,0.033,0.049,0.049,0.077l3.788,6.405l3.419,0.156l1.41-2.997l-3.829-6.468C43.716,25.096,41.952,24,40.068,24 L40.068,24z"/><g><path fill="#8bb7f0" d="M30.279,51.5c-2.141,0-3.866-0.87-4.734-2.386C24.68,47.6,24.81,45.666,25.9,43.808l3.663-6.377 l2.922-0.285l1.073,2.566l-4.111,7.156l0.846,0.031h7.389l-1.918,2.3l1.918,2.3H30.279z"/><path fill="#4e7ab5" d="M32.166,37.68l0.836,1.998l-3.548,6.177l-0.027,0.041l-0.028,0.055L28.671,47.4h1.621h6.321 l-0.967,1.16l-0.534,0.64l0.534,0.64L36.614,51h-6.335c-1.956,0-3.524-0.778-4.3-2.133c-0.774-1.355-0.646-3.106,0.357-4.814 l3.533-6.15L32.166,37.68 M32.804,36.613l-3.544,0.346l-3.79,6.597c-1.184,2.015-1.315,4.133-0.358,5.808 C26.071,51.039,27.955,52,30.279,52h8.471l-2.335-2.8l2.335-2.8h-8.457c0.005-0.011,0.014-0.021,0.019-0.031l3.804-6.621 L32.804,36.613L32.804,36.613z"/></g></g></svg>