<?xml version="1.0" encoding="UTF-8"?>
<svg xmlns="http://www.w3.org/2000/svg" xmlns:xlink="http://www.w3.org/1999/xlink" width="480pt" height="480pt" viewBox="0 0 480 480" version="1.1">
<g id="surface5304057">
<path style=" stroke:none;fill-rule:nonzero;fill:rgb(100%,100%,100%);fill-opacity:1;" d="M 341.0625 210.65625 C 340.3125 210.65625 339.65625 210.75 338.90625 210.65625 C 336 210.65625 333.1875 210 330.375 209.4375 C 323.625 207.9375 316.96875 207.09375 310.03125 206.53125 C 297.9375 205.59375 285.75 205.21875 273.65625 204.9375 C 273.28125 204.9375 273 204.84375 272.625 204.84375 C 271.40625 204.9375 270.1875 204.65625 269.0625 203.625 C 264.9375 200.0625 263.0625 193.6875 261.28125 188.8125 C 258.75 181.875 255.75 175.125 252.9375 168.28125 C 249.46875 159.9375 244.78125 152.71875 240.28125 144.9375 C 239.34375 143.34375 238.40625 141.65625 237.46875 139.96875 C 237 141.1875 236.625 142.40625 236.25 143.4375 C 235.125 146.53125 234 149.4375 232.3125 152.25 C 228.375 159 223.875 165.46875 220.125 172.3125 C 214.21875 183 210 195.9375 199.5 203.0625 C 197.625 204.28125 195.75 204.09375 194.34375 203.0625 C 193.875 203.625 193.21875 204.09375 192.375 204.375 C 180.84375 208.875 168 207.1875 156 207.28125 C 142.96875 207.28125 130.03125 207.5625 117.09375 207.375 C 121.875 216.46875 132.375 223.21875 139.59375 229.6875 C 150.65625 239.53125 158.71875 252.5625 166.59375 265.03125 C 166.875 265.5 167.15625 266.0625 167.25 266.53125 C 168.46875 267.1875 169.3125 268.5 169.21875 270.375 C 168.65625 284.4375 163.875 297.1875 159.5625 310.5 C 157.6875 316.21875 156 321.9375 153.9375 327.65625 C 153.09375 330 152.15625 332.4375 151.3125 334.96875 C 157.78125 331.59375 164.34375 328.59375 171 325.6875 C 189.1875 317.71875 207.1875 309.28125 225.84375 302.34375 C 226.875 301.40625 228.28125 300.84375 229.96875 301.03125 C 242.8125 302.8125 253.875 311.0625 265.125 316.875 C 277.21875 323.15625 289.78125 328.3125 302.4375 333.28125 C 298.96875 324.84375 296.71875 315.65625 294.5625 306.9375 C 291.375 293.90625 287.625 280.96875 288.9375 267.46875 C 288.9375 266.34375 289.21875 265.21875 290.15625 264.1875 C 305.8125 245.90625 324.28125 230.53125 340.78125 213.09375 C 341.0625 212.15625 340.96875 211.40625 341.0625 210.65625 Z M 341.0625 210.65625 "/>
<path style=" stroke:none;fill-rule:nonzero;fill:rgb(94.509804%,76.862745%,5.882353%);fill-opacity:1;" d="M 436.6875 163.875 C 416.71875 123.1875 378.9375 91.21875 339 71.0625 C 298.875 50.71875 252.46875 40.03125 207.65625 47.15625 C 133.6875 58.78125 61.96875 113.0625 40.875 185.8125 C 40.875 186.65625 40.6875 187.40625 40.21875 188.25 C 39.84375 189.5625 39.46875 190.96875 39.1875 192.28125 C 38.71875 193.21875 38.25 194.15625 37.875 195.1875 C 37.78125 196.03125 37.59375 196.96875 37.5 197.71875 C 36.65625 201.5625 35.625 205.40625 34.96875 209.25 C 33.65625 216.46875 33.9375 223.96875 31.40625 230.8125 C 31.21875 232.78125 30.9375 234.75 30.65625 236.71875 C 30.65625 237 30.65625 237.1875 30.65625 237.375 C 30.1875 241.5 29.8125 245.625 29.4375 249.75 C 28.6875 258.375 28.3125 267 28.40625 275.625 C 28.6875 292.59375 30.65625 309.5625 34.875 325.96875 C 43.03125 357.1875 58.78125 386.71875 83.625 407.8125 C 100.6875 422.34375 120.65625 431.90625 142.125 438.09375 C 165.5625 444.9375 189.9375 448.78125 214.40625 448.875 C 262.6875 448.96875 311.15625 435.84375 350.90625 407.90625 C 424.40625 356.15625 479.8125 251.4375 436.6875 163.875 Z M 353.4375 211.03125 C 353.8125 212.4375 353.53125 214.03125 352.3125 215.34375 C 335.25 234.09375 315.5625 250.21875 298.96875 269.34375 C 297.75 281.34375 301.78125 293.53125 304.6875 305.0625 C 307.3125 315.28125 309.75 326.4375 314.90625 335.71875 C 316.875 339.1875 314.25 342.65625 311.25 343.21875 C 309.84375 344.625 307.78125 345.46875 305.53125 344.53125 C 290.90625 338.8125 276.1875 333.1875 262.21875 325.96875 C 252.1875 320.71875 242.0625 313.125 230.71875 310.78125 C 230.4375 310.96875 230.15625 311.0625 229.875 311.15625 C 211.96875 317.8125 194.71875 325.875 177.1875 333.46875 C 171.28125 336.09375 165.28125 338.625 159.46875 341.625 C 156.9375 342.9375 154.3125 344.25 151.96875 345.84375 C 151.21875 346.40625 150.28125 346.875 149.625 347.53125 L 149.53125 347.625 C 148.3125 353.34375 139.5 351.28125 139.96875 345.46875 C 139.96875 345.1875 139.875 344.90625 139.96875 344.53125 C 140.625 333.09375 145.875 322.21875 149.34375 311.4375 C 153.46875 298.21875 159 285.1875 159.75 271.21875 C 159.375 270.9375 159 270.46875 158.71875 270 C 150.28125 256.59375 141.65625 243.65625 129.46875 233.25 C 120.5625 225.65625 109.125 217.03125 106.21875 205.125 C 103.96875 202.21875 105 197.0625 109.59375 197.25 C 124.59375 197.71875 139.59375 197.34375 154.59375 197.34375 C 166.125 197.34375 178.78125 199.21875 189.84375 194.90625 C 191.4375 194.25 192.84375 194.53125 193.875 195.1875 C 194.0625 195 194.34375 194.8125 194.625 194.625 C 200.0625 190.96875 203.15625 184.6875 206.0625 178.96875 C 208.875 173.34375 211.6875 167.8125 214.96875 162.46875 C 219.28125 155.625 224.25 148.78125 227.0625 141.1875 C 229.125 135.5625 231.09375 130.125 235.78125 126.1875 C 236.53125 125.625 237.1875 125.25 237.84375 125.15625 C 239.8125 124.125 242.25 124.5 244.03125 126.84375 C 244.5 127.40625 244.6875 128.15625 244.96875 128.90625 C 245.34375 130.03125 245.34375 131.0625 244.96875 132 C 245.90625 136.21875 249.28125 140.53125 251.34375 143.90625 C 255.28125 150.28125 258.9375 156.65625 261.75 163.59375 C 264.46875 170.25 267.46875 176.8125 269.90625 183.46875 C 271.125 186.84375 272.25 192 274.6875 195.09375 C 287.90625 195.46875 301.125 195.84375 314.34375 197.0625 C 321.84375 197.71875 328.875 199.21875 336.28125 200.53125 C 342.09375 201.5625 347.4375 200.15625 353.0625 202.6875 C 357 204.5625 356.15625 209.0625 353.4375 211.03125 Z M 353.4375 211.03125 "/>
<path style=" stroke:none;fill-rule:nonzero;fill:rgb(0%,0%,0%);fill-opacity:1;" d="M 436.40625 144.28125 C 412.78125 106.40625 374.625 77.15625 334.5 58.40625 C 293.90625 39.46875 247.40625 30.75 202.96875 38.4375 C 126.28125 51.75 52.96875 108.46875 31.5 184.3125 C 28.40625 189.46875 27.9375 196.59375 26.625 202.3125 C 25.6875 206.34375 25.03125 210.46875 24.46875 214.59375 C 24.375 214.96875 24.375 215.4375 24.28125 215.8125 C 24.1875 216.09375 24.09375 216.28125 24.09375 216.5625 C 23.34375 220.5 22.6875 224.4375 22.125 228.375 C 22.125 228.46875 22.03125 228.46875 22.03125 228.5625 C 21.5625 229.6875 21.46875 230.71875 21.65625 231.5625 C 20.71875 239.15625 20.0625 246.75 19.5 254.34375 C 18.75 265.03125 18.65625 275.8125 19.21875 286.5 C 20.4375 307.40625 24.46875 328.21875 31.6875 347.90625 C 46.03125 387.09375 74.34375 419.625 112.40625 437.25 C 134.0625 447.1875 158.15625 452.90625 181.6875 456 C 205.59375 459.09375 229.96875 458.90625 253.875 455.4375 C 301.59375 448.5 346.21875 427.59375 381.46875 394.6875 C 415.59375 362.90625 442.40625 321.9375 454.6875 276.75 C 467.15625 231.84375 461.25 184.03125 436.40625 144.28125 Z M 350.8125 407.90625 C 311.0625 435.84375 262.59375 448.96875 214.3125 448.875 C 189.84375 448.78125 165.46875 444.9375 142.03125 438.09375 C 120.5625 431.8125 100.59375 422.34375 83.53125 407.8125 C 58.6875 386.71875 42.9375 357.1875 34.78125 325.96875 C 30.46875 309.5625 28.59375 292.59375 28.3125 275.625 C 28.125 267 28.5 258.375 29.34375 249.75 C 29.71875 245.625 30.09375 241.5 30.5625 237.375 C 30.5625 237.1875 30.5625 236.90625 30.5625 236.71875 C 30.84375 234.75 31.125 232.78125 31.3125 230.8125 C 33.84375 223.96875 33.5625 216.375 34.875 209.25 C 35.625 205.40625 36.5625 201.5625 37.40625 197.71875 C 37.59375 196.96875 37.6875 196.125 37.78125 195.1875 C 38.15625 194.25 38.625 193.21875 39.09375 192.28125 C 39.46875 190.96875 39.75 189.5625 40.125 188.25 C 40.59375 187.40625 40.875 186.5625 40.78125 185.8125 C 61.96875 113.0625 133.59375 58.78125 207.5625 47.15625 C 252.46875 40.03125 298.78125 50.71875 338.90625 71.0625 C 378.84375 91.21875 416.53125 123.28125 436.59375 163.875 C 479.8125 251.4375 424.40625 356.15625 350.8125 407.90625 Z M 350.8125 407.90625 "/>
<path style=" stroke:none;fill-rule:nonzero;fill:rgb(0%,0%,0%);fill-opacity:1;" d="M 353.0625 202.875 C 347.4375 200.34375 342.09375 201.75 336.28125 200.71875 C 328.875 199.3125 321.84375 197.90625 314.34375 197.25 C 301.125 196.03125 287.90625 195.65625 274.6875 195.28125 C 272.25 192.1875 271.125 187.03125 269.90625 183.65625 C 267.46875 176.90625 264.46875 170.34375 261.75 163.78125 C 258.84375 156.84375 255.28125 150.46875 251.34375 144.09375 C 249.28125 140.71875 245.8125 136.5 244.96875 132.1875 C 245.25 131.34375 245.34375 130.21875 244.96875 129.09375 C 244.6875 128.34375 244.5 127.59375 244.03125 127.03125 C 242.25 124.6875 239.71875 124.40625 237.84375 125.34375 C 237.1875 125.4375 236.4375 125.8125 235.78125 126.375 C 231 130.3125 229.125 135.75 227.0625 141.375 C 224.25 148.96875 219.28125 155.8125 214.96875 162.65625 C 211.59375 168 208.875 173.53125 206.0625 179.15625 C 203.25 184.78125 200.0625 191.15625 194.625 194.8125 C 194.34375 195 194.0625 195.1875 193.875 195.375 C 192.84375 194.625 191.4375 194.4375 189.84375 195.09375 C 178.875 199.40625 166.125 197.53125 154.59375 197.53125 C 139.59375 197.53125 124.59375 197.90625 109.59375 197.4375 C 105 197.34375 103.96875 202.5 106.21875 205.3125 C 109.125 217.3125 120.5625 225.9375 129.46875 233.4375 C 141.65625 243.75 150.28125 256.6875 158.71875 270.1875 C 159 270.65625 159.375 271.125 159.75 271.40625 C 159 285.375 153.46875 298.40625 149.34375 311.625 C 145.96875 322.40625 140.625 333.375 139.96875 344.71875 C 139.96875 345.09375 139.96875 345.375 139.96875 345.65625 C 139.40625 351.5625 148.3125 353.625 149.53125 347.8125 L 149.625 347.71875 C 150.28125 347.0625 151.125 346.59375 151.96875 346.03125 C 154.40625 344.4375 156.9375 343.125 159.46875 341.8125 C 165.28125 338.8125 171.1875 336.28125 177.1875 333.65625 C 194.625 326.0625 211.96875 317.90625 229.875 311.34375 C 230.15625 311.25 230.4375 311.0625 230.71875 310.96875 C 242.0625 313.3125 252.09375 320.90625 262.21875 326.15625 C 276.1875 333.375 290.90625 339 305.53125 344.71875 C 307.78125 345.65625 309.9375 344.8125 311.25 343.40625 C 314.25 342.84375 316.875 339.375 314.90625 335.90625 C 309.65625 326.625 307.21875 315.46875 304.6875 305.25 C 301.78125 293.71875 297.75 281.53125 298.96875 269.53125 C 315.5625 250.40625 335.34375 234.28125 352.3125 215.53125 C 353.53125 214.21875 353.8125 212.625 353.4375 211.21875 C 356.15625 209.0625 357 204.5625 353.0625 202.875 Z M 290.53125 264 C 289.59375 265.03125 289.3125 266.15625 289.3125 267.28125 C 288 280.78125 291.75 293.71875 294.9375 306.75 C 297.09375 315.46875 299.25 324.65625 302.8125 333.09375 C 290.15625 328.125 277.59375 322.96875 265.5 316.6875 C 254.25 310.875 243.1875 302.625 230.34375 300.84375 C 228.65625 300.5625 227.15625 301.125 226.21875 302.15625 C 207.65625 309.09375 189.5625 317.53125 171.375 325.5 C 164.71875 328.40625 158.0625 331.40625 151.6875 334.78125 C 152.53125 332.25 153.375 329.8125 154.3125 327.46875 C 156.375 321.75 158.0625 316.03125 159.9375 310.3125 C 164.25 297.09375 168.9375 284.25 169.59375 270.1875 C 169.6875 268.3125 168.84375 267 167.625 266.34375 C 167.53125 265.875 167.25 265.3125 166.96875 264.84375 C 159.1875 252.375 151.03125 239.4375 139.96875 229.5 C 132.75 223.03125 122.15625 216.28125 117.46875 207.1875 C 130.5 207.375 143.4375 207.1875 156.375 207.09375 C 168.375 207.09375 181.21875 208.6875 192.75 204.1875 C 193.59375 203.90625 194.15625 203.4375 194.71875 202.875 C 196.125 203.8125 198 204.09375 199.875 202.875 C 210.46875 195.75 214.59375 182.8125 220.5 172.125 C 224.25 165.28125 228.84375 158.90625 232.6875 152.0625 C 234.375 149.25 235.5 146.34375 236.625 143.25 C 237 142.21875 237.375 141 237.84375 139.78125 C 238.78125 141.5625 239.8125 143.15625 240.65625 144.75 C 245.15625 152.53125 249.84375 159.75 253.3125 168.09375 C 256.125 174.9375 259.125 181.6875 261.65625 188.625 C 263.4375 193.5 265.3125 199.875 269.4375 203.4375 C 270.5625 204.375 271.78125 204.75 273 204.65625 C 273.28125 204.75 273.65625 204.75 274.03125 204.75 C 286.125 205.125 298.3125 205.5 310.40625 206.34375 C 317.34375 206.90625 324 207.75 330.75 209.25 C 333.5625 209.90625 336.375 210.46875 339.28125 210.46875 C 339.9375 210.46875 340.6875 210.46875 341.4375 210.46875 C 341.34375 211.21875 341.34375 211.96875 341.53125 212.71875 C 324.75 230.34375 306.1875 245.8125 290.53125 264 Z M 290.53125 264 "/>
</g>
</svg>
